# xmcd
#
# Track frame offsets: 
#        193
#        14333
#        38245
#        63833
#        85713
#        112483
#        130565
#        149345
#        174698
#        201083
#
# Disc length: 2901 seconds
#
# Revision: 2
# Processed by: cddbd v1.4PL0 Copyright (c) Steve Scherf et al.
# Submitted via: ExactAudioCopy v0.95a2
#
DISCID=890b530a
DTITLE=Miracle Workers - Roll Out The Red Carpet
DYEAR=1991
DGENRE=
TTITLE0=Fool
TTITLE1=Roll Out The Red Carpet
TTITLE2=Kindred Soul
TTITLE3=Rock N Roll Revolution In The Streets (Part 1)
TTITLE4=Way Back When
TTITLE5=Magic Slide
TTITLE6=Untitled
TTITLE7=Pretty One
TTITLE8=Burn Baby Burn
TTITLE9=In The Air
EXTD=
EXTT0=
EXTT1=
EXTT2=
EXTT3=
EXTT4=
EXTT5=
EXTT6=
EXTT7=
EXTT8=
EXTT9=
PLAYORDER=
